<?xml version="1.0" standalone="no"?>
<svg xmlns:xlink="http://www.w3.org/1999/xlink" id="wave" style="transform:rotate(0deg); transition: 0.3s" viewBox="0 0 1440 240" version="1.1" xmlns="http://www.w3.org/2000/svg"><defs><linearGradient id="sw-gradient-0" x1="0" x2="0" y1="1" y2="0"><stop stop-color="rgb(0, 187, 255)" offset="0%"/><stop stop-color="rgba(15.206, 255, 222.509, 1)" offset="100%"/></linearGradient></defs><path style="transform:translate(0, 0px); opacity:1" fill="url(#sw-gradient-0)" d="M0,120L26.7,104C53.3,88,107,56,160,40C213.3,24,267,24,320,36C373.3,48,427,72,480,92C533.3,112,587,128,640,112C693.3,96,747,48,800,40C853.3,32,907,64,960,64C1013.3,64,1067,32,1120,44C1173.3,56,1227,112,1280,112C1333.3,112,1387,56,1440,52C1493.3,48,1547,96,1600,124C1653.3,152,1707,160,1760,148C1813.3,136,1867,104,1920,84C1973.3,64,2027,56,2080,52C2133.3,48,2187,48,2240,52C2293.3,56,2347,64,2400,80C2453.3,96,2507,120,2560,112C2613.3,104,2667,64,2720,56C2773.3,48,2827,72,2880,104C2933.3,136,2987,176,3040,188C3093.3,200,3147,184,3200,160C3253.3,136,3307,104,3360,104C3413.3,104,3467,136,3520,160C3573.3,184,3627,200,3680,176C3733.3,152,3787,88,3813,56L3840,24L3840,240L3813.3,240C3786.7,240,3733,240,3680,240C3626.7,240,3573,240,3520,240C3466.7,240,3413,240,3360,240C3306.7,240,3253,240,3200,240C3146.7,240,3093,240,3040,240C2986.7,240,2933,240,2880,240C2826.7,240,2773,240,2720,240C2666.7,240,2613,240,2560,240C2506.7,240,2453,240,2400,240C2346.7,240,2293,240,2240,240C2186.7,240,2133,240,2080,240C2026.7,240,1973,240,1920,240C1866.7,240,1813,240,1760,240C1706.7,240,1653,240,1600,240C1546.7,240,1493,240,1440,240C1386.7,240,1333,240,1280,240C1226.7,240,1173,240,1120,240C1066.7,240,1013,240,960,240C906.7,240,853,240,800,240C746.7,240,693,240,640,240C586.7,240,533,240,480,240C426.7,240,373,240,320,240C266.7,240,213,240,160,240C106.7,240,53,240,27,240L0,240Z"/></svg>